<mxfile host="app.diagrams.net" modified="2021-04-13T19:55:04.874Z" agent="5.0 (Windows NT 10.0; Win64; x64) AppleWebKit/537.36 (KHTML, like Gecko) Chrome/89.0.4389.114 Safari/537.36" etag="XJRxKNdhh6c-veyaic6P" version="14.6.0" type="github" pages="2">
  <diagram id="HSD-X7fqo-SPjqaBtpFO" name="Page-1">
    <mxGraphModel dx="1635" dy="882" grid="1" gridSize="10" guides="1" tooltips="1" connect="1" arrows="1" fold="1" page="1" pageScale="1" pageWidth="827" pageHeight="1169" math="0" shadow="0">
      <root>
        <mxCell id="0" />
        <mxCell id="1" parent="0" />
        <mxCell id="we-uQQlC27e7gydX1g5q-1" value="Login" style="rounded=0;whiteSpace=wrap;html=1;" vertex="1" parent="1">
          <mxGeometry x="360" y="420" width="120" height="60" as="geometry" />
        </mxCell>
        <mxCell id="we-uQQlC27e7gydX1g5q-2" value="Cadastro" style="rounded=0;whiteSpace=wrap;html=1;" vertex="1" parent="1">
          <mxGeometry x="560" y="420" width="120" height="60" as="geometry" />
        </mxCell>
        <mxCell id="we-uQQlC27e7gydX1g5q-3" value="Catálogo" style="rounded=0;whiteSpace=wrap;html=1;" vertex="1" parent="1">
          <mxGeometry x="760" y="420" width="120" height="60" as="geometry" />
        </mxCell>
        <mxCell id="we-uQQlC27e7gydX1g5q-4" value="Colaborador" style="shape=umlActor;verticalLabelPosition=bottom;verticalAlign=top;html=1;" vertex="1" parent="1">
          <mxGeometry x="200" y="420" width="30" height="60" as="geometry" />
        </mxCell>
        <mxCell id="we-uQQlC27e7gydX1g5q-5" value="" style="rounded=0;whiteSpace=wrap;html=1;" vertex="1" parent="1">
          <mxGeometry x="210" y="520" width="10" height="570" as="geometry" />
        </mxCell>
        <mxCell id="we-uQQlC27e7gydX1g5q-6" value="" style="rounded=0;whiteSpace=wrap;html=1;" vertex="1" parent="1">
          <mxGeometry x="415" y="520" width="10" height="100" as="geometry" />
        </mxCell>
        <mxCell id="we-uQQlC27e7gydX1g5q-7" value="" style="endArrow=classic;html=1;exitX=1.083;exitY=0.062;exitDx=0;exitDy=0;exitPerimeter=0;entryX=0.052;entryY=0.361;entryDx=0;entryDy=0;entryPerimeter=0;" edge="1" parent="1" source="we-uQQlC27e7gydX1g5q-5" target="we-uQQlC27e7gydX1g5q-6">
          <mxGeometry width="50" height="50" relative="1" as="geometry">
            <mxPoint x="500" y="630" as="sourcePoint" />
            <mxPoint x="410" y="550" as="targetPoint" />
          </mxGeometry>
        </mxCell>
        <mxCell id="we-uQQlC27e7gydX1g5q-8" value="&lt;font face=&quot;Comic Sans MS&quot; style=&quot;font-size: 13px&quot;&gt;Login&lt;/font&gt;" style="text;html=1;strokeColor=none;fillColor=none;align=center;verticalAlign=middle;whiteSpace=wrap;rounded=0;" vertex="1" parent="1">
          <mxGeometry x="300" y="530" width="40" height="20" as="geometry" />
        </mxCell>
        <mxCell id="we-uQQlC27e7gydX1g5q-9" value="" style="endArrow=classic;html=1;dashed=1;exitX=-0.022;exitY=0.787;exitDx=0;exitDy=0;entryX=1.108;entryY=0.139;entryDx=0;entryDy=0;entryPerimeter=0;exitPerimeter=0;" edge="1" parent="1" source="we-uQQlC27e7gydX1g5q-6" target="we-uQQlC27e7gydX1g5q-5">
          <mxGeometry width="50" height="50" relative="1" as="geometry">
            <mxPoint x="400" y="598" as="sourcePoint" />
            <mxPoint x="240" y="610" as="targetPoint" />
          </mxGeometry>
        </mxCell>
        <mxCell id="we-uQQlC27e7gydX1g5q-10" value="&lt;font style=&quot;font-size: 12px&quot; face=&quot;Verdana&quot;&gt;Acesso a página principal&lt;/font&gt;" style="text;html=1;strokeColor=none;fillColor=none;align=center;verticalAlign=middle;whiteSpace=wrap;rounded=0;" vertex="1" parent="1">
          <mxGeometry x="240" y="575" width="160" height="20" as="geometry" />
        </mxCell>
        <mxCell id="we-uQQlC27e7gydX1g5q-11" value="" style="rounded=0;whiteSpace=wrap;html=1;" vertex="1" parent="1">
          <mxGeometry x="615" y="520" width="10" height="220" as="geometry" />
        </mxCell>
        <mxCell id="we-uQQlC27e7gydX1g5q-12" value="" style="endArrow=classic;html=1;entryX=0.02;entryY=0.662;entryDx=0;entryDy=0;entryPerimeter=0;exitX=1.114;exitY=0.257;exitDx=0;exitDy=0;exitPerimeter=0;" edge="1" parent="1" source="we-uQQlC27e7gydX1g5q-5" target="we-uQQlC27e7gydX1g5q-11">
          <mxGeometry width="50" height="50" relative="1" as="geometry">
            <mxPoint x="230" y="661" as="sourcePoint" />
            <mxPoint x="610" y="659" as="targetPoint" />
          </mxGeometry>
        </mxCell>
        <mxCell id="we-uQQlC27e7gydX1g5q-13" value="&lt;font style=&quot;font-size: 13px&quot; face=&quot;Comic Sans MS&quot;&gt;Clicar em editar catálogo&lt;/font&gt;" style="text;html=1;strokeColor=none;fillColor=none;align=center;verticalAlign=middle;whiteSpace=wrap;rounded=0;" vertex="1" parent="1">
          <mxGeometry x="340" y="640" width="160" height="20" as="geometry" />
        </mxCell>
        <mxCell id="we-uQQlC27e7gydX1g5q-14" value="" style="endArrow=classic;html=1;exitX=-0.08;exitY=0.869;exitDx=0;exitDy=0;dashed=1;exitPerimeter=0;entryX=1.088;entryY=0.338;entryDx=0;entryDy=0;entryPerimeter=0;" edge="1" parent="1" source="we-uQQlC27e7gydX1g5q-11" target="we-uQQlC27e7gydX1g5q-5">
          <mxGeometry width="50" height="50" relative="1" as="geometry">
            <mxPoint x="560" y="790" as="sourcePoint" />
            <mxPoint x="240" y="710" as="targetPoint" />
          </mxGeometry>
        </mxCell>
        <mxCell id="we-uQQlC27e7gydX1g5q-15" value="&lt;font style=&quot;font-size: 18px&quot; face=&quot;Comic Sans MS&quot;&gt;Gerenciar catálogo&lt;/font&gt;" style="text;html=1;strokeColor=none;fillColor=none;align=center;verticalAlign=middle;whiteSpace=wrap;rounded=0;" vertex="1" parent="1">
          <mxGeometry x="527.5" y="380" width="185" height="20" as="geometry" />
        </mxCell>
        <mxCell id="we-uQQlC27e7gydX1g5q-16" value="&lt;font style=&quot;font-size: 12px&quot; face=&quot;Verdana&quot;&gt;Acesso a pagina de edição de catálogo&lt;/font&gt;" style="text;html=1;strokeColor=none;fillColor=none;align=center;verticalAlign=middle;whiteSpace=wrap;rounded=0;" vertex="1" parent="1">
          <mxGeometry x="300" y="690" width="237.5" height="20" as="geometry" />
        </mxCell>
        <mxCell id="we-uQQlC27e7gydX1g5q-18" value="" style="rounded=0;whiteSpace=wrap;html=1;" vertex="1" parent="1">
          <mxGeometry x="815" y="520" width="10" height="570" as="geometry" />
        </mxCell>
        <mxCell id="we-uQQlC27e7gydX1g5q-19" value="" style="endArrow=classic;html=1;entryX=-0.126;entryY=0.445;entryDx=0;entryDy=0;entryPerimeter=0;exitX=1.218;exitY=0.448;exitDx=0;exitDy=0;exitPerimeter=0;" edge="1" parent="1" source="we-uQQlC27e7gydX1g5q-5" target="we-uQQlC27e7gydX1g5q-18">
          <mxGeometry width="50" height="50" relative="1" as="geometry">
            <mxPoint x="220.06999999999988" y="821.9799999999999" as="sourcePoint" />
            <mxPoint x="614.9999999999999" y="819.9999999999999" as="targetPoint" />
          </mxGeometry>
        </mxCell>
        <mxCell id="we-uQQlC27e7gydX1g5q-20" value="&lt;font style=&quot;font-size: 13px&quot; face=&quot;Comic Sans MS&quot;&gt;Cadastrar produto&lt;/font&gt;" style="text;html=1;strokeColor=none;fillColor=none;align=center;verticalAlign=middle;whiteSpace=wrap;rounded=0;" vertex="1" parent="1">
          <mxGeometry x="440" y="750" width="120" height="20" as="geometry" />
        </mxCell>
        <mxCell id="we-uQQlC27e7gydX1g5q-22" value="" style="endArrow=classic;html=1;exitX=-0.082;exitY=0.525;exitDx=0;exitDy=0;exitPerimeter=0;dashed=1;entryX=1.085;entryY=0.523;entryDx=0;entryDy=0;entryPerimeter=0;" edge="1" parent="1" source="we-uQQlC27e7gydX1g5q-18" target="we-uQQlC27e7gydX1g5q-5">
          <mxGeometry width="50" height="50" relative="1" as="geometry">
            <mxPoint x="450" y="890" as="sourcePoint" />
            <mxPoint x="230" y="824" as="targetPoint" />
          </mxGeometry>
        </mxCell>
        <mxCell id="we-uQQlC27e7gydX1g5q-23" value="&lt;font style=&quot;font-size: 12px&quot; face=&quot;Verdana&quot;&gt;Produto cadastrado&lt;/font&gt;" style="text;html=1;strokeColor=none;fillColor=none;align=center;verticalAlign=middle;whiteSpace=wrap;rounded=0;" vertex="1" parent="1">
          <mxGeometry x="440" y="790" width="118.75" height="20" as="geometry" />
        </mxCell>
        <mxCell id="we-uQQlC27e7gydX1g5q-24" value="" style="endArrow=classic;html=1;entryX=0.051;entryY=0.625;entryDx=0;entryDy=0;entryPerimeter=0;exitX=1.04;exitY=0.627;exitDx=0;exitDy=0;exitPerimeter=0;" edge="1" parent="1" source="we-uQQlC27e7gydX1g5q-5" target="we-uQQlC27e7gydX1g5q-18">
          <mxGeometry width="50" height="50" relative="1" as="geometry">
            <mxPoint x="222.55999999999992" y="870.0000000000002" as="sourcePoint" />
            <mxPoint x="815" y="870.0000000000002" as="targetPoint" />
          </mxGeometry>
        </mxCell>
        <mxCell id="we-uQQlC27e7gydX1g5q-25" value="&lt;font style=&quot;font-size: 13px&quot; face=&quot;Comic Sans MS&quot;&gt;Editar produto&lt;/font&gt;" style="text;html=1;strokeColor=none;fillColor=none;align=center;verticalAlign=middle;whiteSpace=wrap;rounded=0;" vertex="1" parent="1">
          <mxGeometry x="448.75" y="850" width="101.25" height="20" as="geometry" />
        </mxCell>
        <mxCell id="we-uQQlC27e7gydX1g5q-26" value="" style="endArrow=classic;html=1;exitX=0.007;exitY=0.703;exitDx=0;exitDy=0;exitPerimeter=0;dashed=1;entryX=1.129;entryY=0.7;entryDx=0;entryDy=0;entryPerimeter=0;" edge="1" parent="1" source="we-uQQlC27e7gydX1g5q-18" target="we-uQQlC27e7gydX1g5q-5">
          <mxGeometry width="50" height="50" relative="1" as="geometry">
            <mxPoint x="814.75" y="889.9999999999999" as="sourcePoint" />
            <mxPoint x="230" y="880" as="targetPoint" />
          </mxGeometry>
        </mxCell>
        <mxCell id="we-uQQlC27e7gydX1g5q-27" value="&lt;font style=&quot;font-size: 12px&quot; face=&quot;Verdana&quot;&gt;Produto atualizado&lt;/font&gt;" style="text;html=1;strokeColor=none;fillColor=none;align=center;verticalAlign=middle;whiteSpace=wrap;rounded=0;" vertex="1" parent="1">
          <mxGeometry x="440" y="890" width="118.75" height="20" as="geometry" />
        </mxCell>
        <mxCell id="we-uQQlC27e7gydX1g5q-28" value="&lt;font style=&quot;font-size: 13px&quot; face=&quot;Comic Sans MS&quot;&gt;Excluir produto&lt;/font&gt;" style="text;html=1;strokeColor=none;fillColor=none;align=center;verticalAlign=middle;whiteSpace=wrap;rounded=0;" vertex="1" parent="1">
          <mxGeometry x="440" y="950" width="120" height="20" as="geometry" />
        </mxCell>
        <mxCell id="we-uQQlC27e7gydX1g5q-29" value="" style="endArrow=classic;html=1;entryX=-0.006;entryY=0.801;entryDx=0;entryDy=0;entryPerimeter=0;exitX=1.145;exitY=0.802;exitDx=0;exitDy=0;exitPerimeter=0;" edge="1" parent="1" source="we-uQQlC27e7gydX1g5q-5" target="we-uQQlC27e7gydX1g5q-18">
          <mxGeometry width="50" height="50" relative="1" as="geometry">
            <mxPoint x="230.66000000000008" y="884.24" as="sourcePoint" />
            <mxPoint x="823.72" y="883.76" as="targetPoint" />
          </mxGeometry>
        </mxCell>
        <mxCell id="we-uQQlC27e7gydX1g5q-31" value="" style="endArrow=classic;html=1;exitX=-0.03;exitY=0.867;exitDx=0;exitDy=0;exitPerimeter=0;dashed=1;entryX=1.029;entryY=0.864;entryDx=0;entryDy=0;entryPerimeter=0;" edge="1" parent="1" source="we-uQQlC27e7gydX1g5q-18" target="we-uQQlC27e7gydX1g5q-5">
          <mxGeometry width="50" height="50" relative="1" as="geometry">
            <mxPoint x="814.9999999999999" y="1020.0000000000001" as="sourcePoint" />
            <mxPoint x="221.0200000000001" y="1020.9599999999999" as="targetPoint" />
          </mxGeometry>
        </mxCell>
        <mxCell id="we-uQQlC27e7gydX1g5q-32" value="&lt;font style=&quot;font-size: 12px&quot; face=&quot;Verdana&quot;&gt;Produto excluido&lt;/font&gt;" style="text;html=1;strokeColor=none;fillColor=none;align=center;verticalAlign=middle;whiteSpace=wrap;rounded=0;" vertex="1" parent="1">
          <mxGeometry x="440" y="990" width="118.75" height="20" as="geometry" />
        </mxCell>
        <mxCell id="we-uQQlC27e7gydX1g5q-33" value="" style="endArrow=none;dashed=1;html=1;dashPattern=1 3;strokeWidth=2;entryX=0.5;entryY=1;entryDx=0;entryDy=0;" edge="1" parent="1" target="we-uQQlC27e7gydX1g5q-11">
          <mxGeometry width="50" height="50" relative="1" as="geometry">
            <mxPoint x="620" y="1090" as="sourcePoint" />
            <mxPoint x="620" y="750" as="targetPoint" />
          </mxGeometry>
        </mxCell>
        <mxCell id="we-uQQlC27e7gydX1g5q-34" value="" style="endArrow=none;dashed=1;html=1;dashPattern=1 3;strokeWidth=2;entryX=0.5;entryY=1;entryDx=0;entryDy=0;" edge="1" parent="1" target="we-uQQlC27e7gydX1g5q-6">
          <mxGeometry width="50" height="50" relative="1" as="geometry">
            <mxPoint x="419.5" y="1090" as="sourcePoint" />
            <mxPoint x="419.5" y="740" as="targetPoint" />
          </mxGeometry>
        </mxCell>
      </root>
    </mxGraphModel>
  </diagram>
  <diagram id="lHT2Uifcf6ekvGxPckuu" name="Page-2">
    <mxGraphModel dx="1363" dy="735" grid="1" gridSize="10" guides="1" tooltips="1" connect="1" arrows="1" fold="1" page="1" pageScale="1" pageWidth="827" pageHeight="1169" math="0" shadow="0">
      <root>
        <mxCell id="gUOl5A9YlX4tn_xAKHEV-0" />
        <mxCell id="gUOl5A9YlX4tn_xAKHEV-1" parent="gUOl5A9YlX4tn_xAKHEV-0" />
        <mxCell id="R7oAblN0fsiOgZm0JvYg-0" value="Cliente" style="shape=umlActor;verticalLabelPosition=bottom;verticalAlign=top;html=1;" vertex="1" parent="gUOl5A9YlX4tn_xAKHEV-1">
          <mxGeometry x="200" y="420" width="30" height="60" as="geometry" />
        </mxCell>
        <mxCell id="xBGU3-9mGCd-_JA1XYuL-0" value="Carrinho" style="rounded=0;whiteSpace=wrap;html=1;" vertex="1" parent="gUOl5A9YlX4tn_xAKHEV-1">
          <mxGeometry x="360" y="420" width="120" height="60" as="geometry" />
        </mxCell>
        <mxCell id="529EV-Y5T88zXuowJ_-n-0" value="Comprar" style="rounded=0;whiteSpace=wrap;html=1;" vertex="1" parent="gUOl5A9YlX4tn_xAKHEV-1">
          <mxGeometry x="560" y="420" width="120" height="60" as="geometry" />
        </mxCell>
        <mxCell id="529EV-Y5T88zXuowJ_-n-1" value="Controle" style="rounded=0;whiteSpace=wrap;html=1;" vertex="1" parent="gUOl5A9YlX4tn_xAKHEV-1">
          <mxGeometry x="760" y="420" width="120" height="60" as="geometry" />
        </mxCell>
        <mxCell id="hVHBxVF0XLROi7U_Ss4o-0" value="" style="rounded=0;whiteSpace=wrap;html=1;" vertex="1" parent="gUOl5A9YlX4tn_xAKHEV-1">
          <mxGeometry x="210" y="520" width="10" height="520" as="geometry" />
        </mxCell>
        <mxCell id="mj1I4bUuhKVc0GK0ZRQB-0" value="" style="rounded=0;whiteSpace=wrap;html=1;" vertex="1" parent="gUOl5A9YlX4tn_xAKHEV-1">
          <mxGeometry x="415" y="520" width="10" height="100" as="geometry" />
        </mxCell>
        <mxCell id="wI3tOaOXqPLrI4I0nghX-0" value="" style="rounded=0;whiteSpace=wrap;html=1;" vertex="1" parent="gUOl5A9YlX4tn_xAKHEV-1">
          <mxGeometry x="615" y="520" width="10" height="520" as="geometry" />
        </mxCell>
        <mxCell id="gjugcRSqxgtbhAilh3qE-0" value="" style="rounded=0;whiteSpace=wrap;html=1;" vertex="1" parent="gUOl5A9YlX4tn_xAKHEV-1">
          <mxGeometry x="815" y="520" width="10" height="520" as="geometry" />
        </mxCell>
        <mxCell id="7-ywyeVrdLthUywL-H20-0" value="" style="endArrow=classic;html=1;exitX=1.036;exitY=0.068;exitDx=0;exitDy=0;exitPerimeter=0;entryX=0.071;entryY=0.353;entryDx=0;entryDy=0;entryPerimeter=0;" edge="1" parent="gUOl5A9YlX4tn_xAKHEV-1" source="hVHBxVF0XLROi7U_Ss4o-0" target="mj1I4bUuhKVc0GK0ZRQB-0">
          <mxGeometry width="50" height="50" relative="1" as="geometry">
            <mxPoint x="230" y="556" as="sourcePoint" />
            <mxPoint x="410" y="556" as="targetPoint" />
          </mxGeometry>
        </mxCell>
        <mxCell id="5a1Tw5G4XA0EiP8zliqK-0" value="&lt;font face=&quot;Comic Sans MS&quot; style=&quot;font-size: 13px&quot;&gt;Clicar em carrinho&lt;/font&gt;" style="text;html=1;strokeColor=none;fillColor=none;align=center;verticalAlign=middle;whiteSpace=wrap;rounded=0;" vertex="1" parent="gUOl5A9YlX4tn_xAKHEV-1">
          <mxGeometry x="260" y="530" width="120" height="20" as="geometry" />
        </mxCell>
        <mxCell id="y02qa763d4CH3s8WzA-O-0" value="" style="endArrow=classic;html=1;dashed=1;entryX=0.959;entryY=0.152;entryDx=0;entryDy=0;entryPerimeter=0;exitX=0.045;exitY=0.792;exitDx=0;exitDy=0;exitPerimeter=0;" edge="1" parent="gUOl5A9YlX4tn_xAKHEV-1" source="mj1I4bUuhKVc0GK0ZRQB-0" target="hVHBxVF0XLROi7U_Ss4o-0">
          <mxGeometry width="50" height="50" relative="1" as="geometry">
            <mxPoint x="410" y="599" as="sourcePoint" />
            <mxPoint x="230" y="599" as="targetPoint" />
          </mxGeometry>
        </mxCell>
        <mxCell id="hDwdvLblsY9mgZyY7vHt-0" value="&lt;font style=&quot;font-size: 12px&quot; face=&quot;Verdana&quot;&gt;Acesso ao carrinho&lt;/font&gt;" style="text;html=1;strokeColor=none;fillColor=none;align=center;verticalAlign=middle;whiteSpace=wrap;rounded=0;" vertex="1" parent="gUOl5A9YlX4tn_xAKHEV-1">
          <mxGeometry x="240" y="575" width="160" height="20" as="geometry" />
        </mxCell>
        <mxCell id="hDwdvLblsY9mgZyY7vHt-1" value="" style="endArrow=classic;html=1;exitX=1.082;exitY=0.269;exitDx=0;exitDy=0;exitPerimeter=0;entryX=0.026;entryY=0.27;entryDx=0;entryDy=0;entryPerimeter=0;" edge="1" parent="gUOl5A9YlX4tn_xAKHEV-1" source="hVHBxVF0XLROi7U_Ss4o-0" target="wI3tOaOXqPLrI4I0nghX-0">
          <mxGeometry width="50" height="50" relative="1" as="geometry">
            <mxPoint x="230" y="660" as="sourcePoint" />
            <mxPoint x="610" y="660" as="targetPoint" />
          </mxGeometry>
        </mxCell>
        <mxCell id="hDwdvLblsY9mgZyY7vHt-2" value="&lt;font face=&quot;Comic Sans MS&quot; style=&quot;font-size: 13px&quot;&gt;Clicar em comprar&lt;/font&gt;" style="text;html=1;strokeColor=none;fillColor=none;align=center;verticalAlign=middle;whiteSpace=wrap;rounded=0;" vertex="1" parent="gUOl5A9YlX4tn_xAKHEV-1">
          <mxGeometry x="350" y="640" width="120" height="20" as="geometry" />
        </mxCell>
        <mxCell id="s6oA3HM3zrjvE1Rja2Qu-0" value="&lt;font style=&quot;font-size: 12px&quot; face=&quot;Verdana&quot;&gt;Acessar pagamento&lt;/font&gt;" style="text;html=1;strokeColor=none;fillColor=none;align=center;verticalAlign=middle;whiteSpace=wrap;rounded=0;" vertex="1" parent="gUOl5A9YlX4tn_xAKHEV-1">
          <mxGeometry x="334" y="830" width="160" height="20" as="geometry" />
        </mxCell>
        <mxCell id="s6oA3HM3zrjvE1Rja2Qu-1" value="" style="endArrow=classic;html=1;dashed=1;entryX=1.009;entryY=0.635;entryDx=0;entryDy=0;entryPerimeter=0;exitX=-0.003;exitY=0.636;exitDx=0;exitDy=0;exitPerimeter=0;" edge="1" parent="gUOl5A9YlX4tn_xAKHEV-1" source="wI3tOaOXqPLrI4I0nghX-0" target="hVHBxVF0XLROi7U_Ss4o-0">
          <mxGeometry width="50" height="50" relative="1" as="geometry">
            <mxPoint x="600" y="850" as="sourcePoint" />
            <mxPoint x="230" y="850" as="targetPoint" />
          </mxGeometry>
        </mxCell>
        <mxCell id="s6oA3HM3zrjvE1Rja2Qu-2" value="" style="endArrow=classic;html=1;exitX=1.045;exitY=0.306;exitDx=0;exitDy=0;exitPerimeter=0;entryX=-0.005;entryY=0.306;entryDx=0;entryDy=0;entryPerimeter=0;" edge="1" parent="gUOl5A9YlX4tn_xAKHEV-1" source="wI3tOaOXqPLrI4I0nghX-0" target="gjugcRSqxgtbhAilh3qE-0">
          <mxGeometry width="50" height="50" relative="1" as="geometry">
            <mxPoint x="630" y="680" as="sourcePoint" />
            <mxPoint x="800" y="680" as="targetPoint" />
          </mxGeometry>
        </mxCell>
        <mxCell id="s6oA3HM3zrjvE1Rja2Qu-3" value="&lt;font face=&quot;Comic Sans MS&quot; style=&quot;font-size: 13px&quot;&gt;Validar cliente&lt;/font&gt;" style="text;html=1;strokeColor=none;fillColor=none;align=center;verticalAlign=middle;whiteSpace=wrap;rounded=0;" vertex="1" parent="gUOl5A9YlX4tn_xAKHEV-1">
          <mxGeometry x="650" y="660" width="120" height="20" as="geometry" />
        </mxCell>
        <mxCell id="s6oA3HM3zrjvE1Rja2Qu-5" value="" style="endArrow=classic;html=1;dashed=1;exitX=0.5;exitY=0.385;exitDx=0;exitDy=0;exitPerimeter=0;entryX=1.014;entryY=0.383;entryDx=0;entryDy=0;entryPerimeter=0;" edge="1" parent="gUOl5A9YlX4tn_xAKHEV-1" source="gjugcRSqxgtbhAilh3qE-0" target="wI3tOaOXqPLrI4I0nghX-0">
          <mxGeometry width="50" height="50" relative="1" as="geometry">
            <mxPoint x="801" y="720" as="sourcePoint" />
            <mxPoint x="640" y="720" as="targetPoint" />
          </mxGeometry>
        </mxCell>
        <mxCell id="s6oA3HM3zrjvE1Rja2Qu-6" value="&lt;font style=&quot;font-size: 12px&quot; face=&quot;Verdana&quot;&gt;Cliente validado&lt;/font&gt;" style="text;html=1;strokeColor=none;fillColor=none;align=center;verticalAlign=middle;whiteSpace=wrap;rounded=0;" vertex="1" parent="gUOl5A9YlX4tn_xAKHEV-1">
          <mxGeometry x="657.5" y="700" width="105" height="20" as="geometry" />
        </mxCell>
        <mxCell id="s6oA3HM3zrjvE1Rja2Qu-7" value="&lt;font face=&quot;Comic Sans MS&quot; style=&quot;font-size: 13px&quot;&gt;Validar pedido&lt;/font&gt;" style="text;html=1;strokeColor=none;fillColor=none;align=center;verticalAlign=middle;whiteSpace=wrap;rounded=0;" vertex="1" parent="gUOl5A9YlX4tn_xAKHEV-1">
          <mxGeometry x="650" y="760" width="120" height="20" as="geometry" />
        </mxCell>
        <mxCell id="s6oA3HM3zrjvE1Rja2Qu-8" value="" style="endArrow=classic;html=1;exitX=1;exitY=0.5;exitDx=0;exitDy=0;entryX=0;entryY=0.5;entryDx=0;entryDy=0;" edge="1" parent="gUOl5A9YlX4tn_xAKHEV-1" source="wI3tOaOXqPLrI4I0nghX-0" target="gjugcRSqxgtbhAilh3qE-0">
          <mxGeometry width="50" height="50" relative="1" as="geometry">
            <mxPoint x="630" y="780" as="sourcePoint" />
            <mxPoint x="800" y="780" as="targetPoint" />
          </mxGeometry>
        </mxCell>
        <mxCell id="s6oA3HM3zrjvE1Rja2Qu-9" value="&lt;font style=&quot;font-size: 12px&quot; face=&quot;Verdana&quot;&gt;Pedido validado&lt;/font&gt;" style="text;html=1;strokeColor=none;fillColor=none;align=center;verticalAlign=middle;whiteSpace=wrap;rounded=0;" vertex="1" parent="gUOl5A9YlX4tn_xAKHEV-1">
          <mxGeometry x="657.5" y="800" width="105" height="20" as="geometry" />
        </mxCell>
        <mxCell id="s6oA3HM3zrjvE1Rja2Qu-10" value="" style="endArrow=classic;html=1;dashed=1;entryX=1.014;entryY=0.577;entryDx=0;entryDy=0;entryPerimeter=0;exitX=0.026;exitY=0.577;exitDx=0;exitDy=0;exitPerimeter=0;" edge="1" parent="gUOl5A9YlX4tn_xAKHEV-1" source="gjugcRSqxgtbhAilh3qE-0" target="wI3tOaOXqPLrI4I0nghX-0">
          <mxGeometry width="50" height="50" relative="1" as="geometry">
            <mxPoint x="801" y="820" as="sourcePoint" />
            <mxPoint x="630" y="820" as="targetPoint" />
          </mxGeometry>
        </mxCell>
        <mxCell id="s6oA3HM3zrjvE1Rja2Qu-11" value="&lt;font face=&quot;Comic Sans MS&quot; style=&quot;font-size: 13px&quot;&gt;Escolher forma de pagamento&lt;/font&gt;" style="text;html=1;strokeColor=none;fillColor=none;align=center;verticalAlign=middle;whiteSpace=wrap;rounded=0;" vertex="1" parent="gUOl5A9YlX4tn_xAKHEV-1">
          <mxGeometry x="320" y="920" width="200" height="20" as="geometry" />
        </mxCell>
        <mxCell id="s6oA3HM3zrjvE1Rja2Qu-12" value="" style="endArrow=classic;html=1;exitX=1.073;exitY=0.808;exitDx=0;exitDy=0;exitPerimeter=0;entryX=-0.018;entryY=0.807;entryDx=0;entryDy=0;entryPerimeter=0;" edge="1" parent="gUOl5A9YlX4tn_xAKHEV-1" source="hVHBxVF0XLROi7U_Ss4o-0" target="wI3tOaOXqPLrI4I0nghX-0">
          <mxGeometry width="50" height="50" relative="1" as="geometry">
            <mxPoint x="230" y="940" as="sourcePoint" />
            <mxPoint x="610" y="940" as="targetPoint" />
          </mxGeometry>
        </mxCell>
        <mxCell id="s6oA3HM3zrjvE1Rja2Qu-13" value="&lt;font face=&quot;Comic Sans MS&quot;&gt;&lt;span style=&quot;font-size: 13px&quot;&gt;Gerar comprovante&lt;/span&gt;&lt;/font&gt;" style="text;html=1;strokeColor=none;fillColor=none;align=center;verticalAlign=middle;whiteSpace=wrap;rounded=0;" vertex="1" parent="gUOl5A9YlX4tn_xAKHEV-1">
          <mxGeometry x="360" y="970" width="120" height="20" as="geometry" />
        </mxCell>
        <mxCell id="s6oA3HM3zrjvE1Rja2Qu-14" value="" style="endArrow=classic;html=1;dashed=1;entryX=1.073;entryY=0.903;entryDx=0;entryDy=0;entryPerimeter=0;exitX=-0.024;exitY=0.903;exitDx=0;exitDy=0;exitPerimeter=0;" edge="1" parent="gUOl5A9YlX4tn_xAKHEV-1" source="wI3tOaOXqPLrI4I0nghX-0" target="hVHBxVF0XLROi7U_Ss4o-0">
          <mxGeometry width="50" height="50" relative="1" as="geometry">
            <mxPoint x="600" y="990" as="sourcePoint" />
            <mxPoint x="230" y="990" as="targetPoint" />
          </mxGeometry>
        </mxCell>
      </root>
    </mxGraphModel>
  </diagram>
</mxfile>
